HIERARCHY
ROOT Hips
{
    OFFSET 0.000000 0.000000 0.000000
    CHANNELS 6 Xposition Yposition Zposition Zrotation Xrotation Yrotation
    JOINT Spine
    {
        OFFSET -0.000000 7.236184 0.000000
        CHANNELS 3 Zrotation Xrotation Yrotation
        JOINT Spine1
        {
            OFFSET -0.000000 20.420147 0.000000
            CHANNELS 3 Zrotation Xrotation Yrotation
            JOINT Neck
            {
                OFFSET -0.000000 20.336288 1.848754
                CHANNELS 3 Zrotation Xrotation Yrotation
                JOINT Head
                {
                    OFFSET -0.000000 12.354461 -1.764923
                    CHANNELS 3 Zrotation Xrotation Yrotation
                    End Site
                    {
                        OFFSET -0.000000 22.061537 0.000000
                    }
                }
            }
            JOINT LeftShoulder
            {
                OFFSET 3.573296 18.396038 -0.314103
                CHANNELS 3 Zrotation Xrotation Yrotation
                JOINT LeftArm
                {
                    OFFSET 10.880760 0.000000 0.000000
                    CHANNELS 3 Zrotation Xrotation Yrotation
                    JOINT LeftForeArm
                    {
                        OFFSET 27.185530 0.000000 0.000000
                        CHANNELS 3 Zrotation Xrotation Yrotation
                        JOINT LeftHand
                        {
                            OFFSET 27.825975 0.000000 0.000000
                            CHANNELS 3 Zrotation Xrotation Yrotation
                            End Site
                            {
                                OFFSET 13.236923 0.000000 0.000000
                            }
                        }
                    }
                }
            }
            JOINT RightShoulder
            {
                OFFSET -3.474926 18.396038 -0.314103
                CHANNELS 3 Zrotation Xrotation Yrotation
                JOINT RightArm
                {
                    OFFSET -10.880760 0.000000 0.000000
                    CHANNELS 3 Zrotation Xrotation Yrotation
                    JOINT RightForeArm
                    {
                        OFFSET -27.185530 0.000000 0.000000
                        CHANNELS 3 Zrotation Xrotation Yrotation
                        JOINT RightHand
                        {
                            OFFSET -27.825975 0.000000 0.000000
                            CHANNELS 3 Zrotation Xrotation Yrotation
                            End Site
                            {
                                OFFSET -13.236923 0.000000 0.000000
                            }
                        }
                    }
                }
            }
        }
    }
    JOINT LeftUpLeg
    {
        OFFSET 8.824615 0.000000 0.000000
        CHANNELS 3 Zrotation Xrotation Yrotation
        JOINT LeftLeg
        {
            OFFSET -0.000000 -35.111282 0.000000
            CHANNELS 3 Zrotation Xrotation Yrotation
            JOINT LeftFoot
            {
                OFFSET -0.000000 -42.324711 0.000000
                CHANNELS 3 Zrotation Xrotation Yrotation
                JOINT LeftToeBase
                {
                    OFFSET -0.000000 -5.735999 13.236923
                    CHANNELS 3 Zrotation Xrotation Yrotation
                    End Site
                    {
                        OFFSET -0.000000 0.000000 3.529846
                    }
                }
            }
        }
    }
    JOINT RightUpLeg
    {
        OFFSET -8.824615 0.000000 0.000000
        CHANNELS 3 Zrotation Xrotation Yrotation
        JOINT RightLeg
        {
            OFFSET -0.000000 -35.111282 0.000000
            CHANNELS 3 Zrotation Xrotation Yrotation
            JOINT RightFoot
            {
                OFFSET -0.000000 -42.324711 0.000000
                CHANNELS 3 Zrotation Xrotation Yrotation
                JOINT RightToeBase
                {
                    OFFSET -0.000000 -5.735999 13.236923
                    CHANNELS 3 Zrotation Xrotation Yrotation
                    End Site
                    {
                        OFFSET -0.000000 0.000000 3.529846
                    }
                }
            }
        }
    }
}
MOTION
Frames:    12
Frame Time:    0.008333
-0.009033    81.835869    107.837952    -1.687701    -8.274804    -176.403366    -2.550807    -12.421961    0.579784    -0.238526    6.617016    0.871249    3.203001    8.217020    -3.010395    5.115597    4.150889    -2.825807    0.013110    17.892792    -2.287668    -50.285587    40.424271    -37.476463    0.762792    -5.952860    -12.410428    16.475334    -5.534842    2.328769    7.119870    18.981541    -6.118465    39.251007    43.414509    39.010521    -3.145092    -10.391603    19.808678    -16.764286    -9.260402    -4.061906    0.666384    -10.766155    -4.711252    -1.713301    10.136209    -0.064832    -2.971750    -7.174812    -8.132633    -0.581067    -0.058435    0.644159    -3.826149    -8.285427    5.335175    3.707494    8.910658    4.770564    -1.824729    -6.553434    -15.946418    -0.270624    -1.033666    0.293121    
-0.014747    81.824821    107.813835    -1.682091    -8.227681    -176.393570    -2.555932    -12.397653    0.568981    -0.205598    6.627073    0.858627    3.190351    8.194169    -3.010394    5.110831    3.955178    -2.817348    0.015043    17.882460    -2.276071    -50.316891    40.354347    -37.406139    0.756791    -5.986610    -12.396255    16.519625    -5.565888    2.346506    7.086812    19.003933    -6.067012    39.365055    43.368996    38.924263    -3.202964    -10.402067    19.800417    -16.771709    -9.255753    -4.097298    0.687664    -10.687735    -4.722698    -1.740794    10.111380    -0.092908    -2.961140    -7.166027    -8.074505    -0.561259    -0.026967    0.622166    -3.777153    -8.317123    5.350397    3.652659    9.095038    4.749235    -1.821623    -6.630462    -15.943365    -0.264744    -1.041091    0.286755    
-0.020460    81.814812    107.791924    -1.677462    -8.184795    -176.384384    -2.560198    -12.374911    0.559325    -0.176169    6.635785    0.847122    3.178302    8.173175    -3.010827    5.107809    3.774498    -2.809808    0.016743    17.873203    -2.265244    -50.344032    40.290268    -37.342407    0.752415    -6.017938    -12.384774    16.564339    -5.594449    2.363163    7.057874    19.024118    -6.022210    39.468117    43.328918    38.844936    -3.255378    -10.411774    19.793249    -16.778690    -9.251678    -4.129715    0.704955    -10.619112    -4.736193    -1.764628    10.093717    -0.114709    -2.951437    -7.160498    -8.023833    -0.544000    0.001065    0.603003    -3.733454    -8.347459    5.365298    3.603426    9.265622    4.730175    -1.819118    -6.701407    -15.942581    -0.259494    -1.048104    0.281071    
-0.026710    81.805435    107.771362    -1.673947    -8.144564    -176.375214    -2.563720    -12.352918    0.550330    -0.149130    6.643690    0.836452    3.166173    8.151891    -3.011984    5.106560    3.600982    -2.803165    0.018120    17.864138    -2.254463    -50.367512    40.229424    -37.282429    0.750130    -6.048418    -12.376450    16.613752    -5.621889    2.379198    7.032156    19.042833    -5.983243    39.564774    43.293774    38.768116    -3.304657    -10.421277    19.787016    -16.785517    -9.248181    -4.160364    0.717638    -10.559692    -4.754199    -1.785169    10.085964    -0.128429    -2.942106    -7.159400    -7.980054    -0.528769    0.025566    0.586095    -3.693755    -8.378845    5.380972    3.557876    9.431488    4.712494    -1.816913    -6.770142    -15.944809    -0.254619    -1.054979    0.275794    
-0.033681    81.796608    107.751976    -1.671504    -8.106310    -176.365677    -2.566258    -12.330887    0.542003    -0.124395    6.650703    0.826539    3.153795    8.130105    -3.014096    5.107420    3.432874    -2.797532    0.019307    17.855495    -2.243625    -50.386848    40.171398    -37.226284    0.750725    -6.078415    -12.372061    16.669851    -5.648465    2.394390    7.009648    19.060528    -5.950291    39.656223    43.264278    38.691990    -3.351364    -10.430894    19.782003    -16.791916    -9.245429    -4.189678    0.724876    -10.510628    -4.778084    -1.801611    10.091646    -0.132407    -2.933252    -7.164125    -7.944030    -0.515670    0.047457    0.571553    -3.657980    -8.411399    5.398544    3.516185    9.594477    4.695754    -1.815384    -6.837490    -15.951178    -0.250152    -1.061638    0.270957    
-0.041230    81.788490    107.734207    -1.670076    -8.070885    -176.355759    -2.567706    -12.309118    0.534659    -0.102297    6.656532    0.817492    3.141326    8.108182    -3.017247    5.110515    3.274163    -2.793109    0.019769    17.847193    -2.232880    -50.400841    40.117802    -37.175404    0.754491    -6.107250    -12.371985    16.731512    -5.673628    2.407940    6.991004    19.077038    -5.923920    39.741013    43.241726    38.616840    -3.394835    -10.440547    19.778215    -16.797222    -9.243566    -4.216938    0.726272    -10.474483    -4.807953    -1.813357    10.113265    -0.125829    -2.925142    -7.175514    -7.916874    -0.504861    0.065507    0.559555    -3.626885    -8.444201    5.417839    3.479353    9.750656    4.679738    -1.814498    -6.901973    -15.961358    -0.246149    -1.067862    0.266624    
-0.049413    81.780945    107.717751    -1.669329    -8.037508    -176.345001    -2.567926    -12.287118    0.528047    -0.082242    6.661392    0.809292    3.128659    8.085557    -3.021491    5.115643    3.123093    -2.789954    0.019867    17.839033    -2.221947    -50.410030    40.067978    -37.129372    0.761791    -6.135132    -12.376301    16.799036    -5.697533    2.419808    6.975421    19.092859    -5.903508    39.821468    43.226604    38.540630    -3.436238    -10.450394    19.775351    -16.800890    -9.242462    -4.242949    0.721829    -10.451612    -4.844152    -1.820159    10.153144    -0.108288    -2.917893    -7.194191    -7.898736    -0.496138    0.080864    0.549871    -3.599615    -8.477187    5.438912    3.446715    9.901833    4.663791    -1.814081    -6.964552    -15.974994    -0.242570    -1.073863    0.262750    
-0.057998    81.774010    107.702759    -1.668860    -8.006464    -176.333374    -2.566865    -12.265232    0.522368    -0.063914    6.665351    0.801921    3.115617    8.062748    -3.026848    5.122994    2.982412    -2.788093    0.019130    17.831209    -2.211257    -50.413830    40.022621    -37.089111    0.772369    -6.161626    -12.384751    16.870104    -5.719850    2.429726    6.962615    19.108158    -5.888548    39.897224    43.218830    38.463547    -3.474839    -10.459960    19.773108    -16.802526    -9.241787    -4.267786    0.712045    -10.442721    -4.885416    -1.821743    10.211886    -0.081051    -2.911974    -7.220216    -7.889560    -0.489222    0.092780    0.542195    -3.576221    -8.509003    5.461422    3.418865    10.044712    4.648370    -1.814219    -7.024110    -15.992136    -0.239593    -1.079215    0.259526    
-0.067019    81.767532    107.688972    -1.668326    -7.977294    -176.320435    -2.564260    -12.243044    0.517366    -0.047136    6.668311    0.795242    3.102670    8.039622    -3.033186    5.131798    2.850065    -2.787456    0.018128    17.823484    -2.200296    -50.413433    39.980824    -37.054028    0.786403    -6.186832    -12.396925    16.943462    -5.740699    2.437817    6.952275    19.123409    -5.878290    39.969551    43.218159    38.384750    -3.510580    -10.468907    19.770258    -16.802223    -9.241163    -4.291971    0.697091    -10.448216    -4.931421    -1.817967    10.291360    -0.045104    -2.907530    -7.254136    -7.888671    -0.483717    0.102255    0.536084    -3.555831    -8.539742    5.484605    3.394804    10.180984    4.633336    -1.814876    -7.081685    -16.012220    -0.237355    -1.083952    0.257105    
-0.076302    81.761520    107.676384    -1.667255    -7.950005    -176.306091    -2.560160    -12.220753    0.513169    -0.031061    6.670374    0.789118    3.089108    8.016104    -3.040471    5.142488    2.727715    -2.787956    0.016192    17.815882    -2.189436    -50.409237    39.942291    -37.023861    0.803382    -6.210605    -12.412365    17.016335    -5.760053    2.443938    6.943828    19.138432    -5.871938    40.038708    43.223103    38.304596    -3.541531    -10.475897    19.764925    -16.800369    -9.239706    -4.315242    0.677726    -10.467973    -4.980505    -1.808818    10.391323    -0.002386    -2.904888    -7.295656    -7.895527    -0.479252    0.109393    0.531130    -3.538123    -8.568404    5.507804    3.374692    10.308666    4.619316    -1.816285    -7.136612    -16.035246    -0.236116    -1.088082    0.255764    
-0.085807    81.755890    107.664856    -1.665206    -7.924362    -176.290146    -2.554280    -12.198228    0.509568    -0.015430    6.671449    0.783484    3.075270    7.992291    -3.048457    5.154301    2.614728    -2.789432    0.013521    17.808378    -2.178400    -50.402382    39.906094    -36.998146    0.822836    -6.233099    -12.430554    17.086788    -5.778160    2.448255    6.937109    19.153711    -5.868976    40.104244    43.232491    38.224415    -3.565963    -10.480124    19.754602    -16.797783    -9.236964    -4.337287    0.654557    -10.501991    -5.031683    -1.794486    10.512399    0.045153    -2.903992    -7.344934    -7.908940    -0.475422    0.114541    0.526880    -3.522420    -8.594593    5.530175    3.357997    10.427917    4.606825    -1.818175    -7.189262    -16.061052    -0.236198    -1.091105    0.255854    
-0.095430    81.750595    107.654312    -1.661854    -7.900324    -176.272537    -2.546575    -12.175688    0.506575    0.000100    6.671793    0.778283    3.061362    7.968346    -3.056869    5.166641    2.511024    -2.791697    0.010398    17.800848    -2.167379    -50.394211    39.871761    -36.976391    0.844296    -6.254585    -12.450890    17.152800    -5.795361    2.450947    6.931576    19.169285    -5.868694    40.165966    43.245190    38.145359    -3.582614    -10.480927    19.737339    -16.795414    -9.232558    -4.357704    0.628281    -10.549707    -5.083461    -1.775175    10.653721    0.095273    -2.904991    -7.401578    -7.927864    -0.471835    0.117466    0.522902    -3.508546    -8.617511    5.551301    3.344959    10.537236    4.596623    -1.821000    -7.238826    -16.090006    -0.237880    -1.092851    0.257676    
